<?xml version="1.0" standalone="no"?>
<!DOCTYPE svg PUBLIC "-//W3C//DTD SVG 20010904//EN"
 "http://www.w3.org/TR/2001/REC-SVG-20010904/DTD/svg10.dtd">
<svg version="1.0" xmlns="http://www.w3.org/2000/svg"
 width="672.000000pt" height="593.000000pt" viewBox="0 0 672.000000 593.000000"
 preserveAspectRatio="xMidYMid meet">

<g transform="translate(0.000000,593.000000) scale(0.100000,-0.100000)"
fill="#000000" stroke="none">
<path d="M5715 3993 c-9 -21 -19 -49 -21 -62 -3 -14 -13 -45 -23 -70 -32 -80
-39 -130 -36 -259 3 -144 4 -148 35 -292 12 -58 25 -120 27 -137 3 -18 9 -33
14 -33 5 0 9 -9 9 -19 0 -11 4 -22 9 -26 5 -3 12 -19 16 -35 6 -29 33 -90 39
-90 6 0 901 492 908 498 5 5 -911 543 -953 560 -5 2 -15 -14 -24 -35z"/>
<path d="M2572 2036 c4 -598 5 -624 25 -697 48 -170 149 -321 283 -424 30 -23
195 -122 365 -220 171 -98 452 -260 625 -360 425 -245 437 -252 519 -280 184
-62 387 -55 559 21 29 13 343 191 697 395 l644 372 -30 36 c-16 20 -51 59 -77
86 -26 28 -55 62 -66 77 -10 15 -21 27 -25 26 -10 -3 -151 72 -151 80 0 4 7
48 16 97 28 159 -2 488 -50 545 -17 20 -50 110 -43 117 7 7 -32 81 -79 148
-19 28 -32 55 -30 61 3 7 -18 35 -44 64 -27 29 -47 57 -44 62 3 4 -2 11 -10
14 -9 3 -24 23 -33 43 -9 20 -20 38 -23 41 -3 3 -23 29 -44 58 l-38 52 -81
-44 c-45 -24 -185 -99 -312 -166 -126 -67 -262 -140 -302 -161 l-71 -39 54
-52 c63 -59 107 -142 123 -232 7 -38 11 -250 11 -582 0 -609 2 -592 -90 -685
-70 -71 -131 -94 -231 -87 -86 7 -159 46 -211 113 -64 84 -63 78 -63 725 1
571 1 587 23 665 28 103 80 209 143 290 27 35 49 68 49 72 0 10 -116 66 -139
68 -29 3 -96 27 -112 42 -9 7 -33 16 -53 18 -36 5 -106 24 -171 46 -16 6 -43
13 -60 15 -16 3 -41 9 -55 14 -14 5 -49 12 -78 14 -29 3 -57 8 -63 12 -6 3
-56 6 -112 6 -88 0 -110 -4 -161 -26 -45 -20 -62 -23 -78 -15 -10 6 -33 11
-49 11 -18 1 -36 9 -44 21 -10 14 -40 24 -121 39 -60 10 -111 23 -114 27 -3 5
-31 14 -62 21 -32 6 -60 16 -64 21 -3 5 -14 7 -25 4 -10 -4 -19 -2 -19 3 0 6
-28 13 -62 16 -76 7 -105 11 -138 20 -14 4 -67 8 -118 10 l-93 3 3 -621z"/>
</g>
</svg>
