<?xml version="1.0" encoding="utf-8"?>
<!-- Generator: Adobe Illustrator 27.5.0, SVG Export Plug-In . SVG Version: 6.00 Build 0)  -->
<svg version="1.1" id="Capa_1" xmlns="http://www.w3.org/2000/svg" xmlns:xlink="http://www.w3.org/1999/xlink" x="0px" y="0px"
	 viewBox="0 0 2122 2122" style="enable-background:new 0 0 2122 2122;" xml:space="preserve">
<g>
	<g>
		<rect x="0.009" y="0.004" style="fill:#EECEDF;" width="2121.317" height="2121.317"/>
		<rect x="-0.019" y="1532.725" style="fill:#D97377;" width="2121.346" height="103.093"/>
		<rect x="0" y="1635.818" style="fill:#EECEDF;" width="2121.327" height="485.504"/>
	</g>
	<g>
		<path style="fill:#6878BA;" d="M962.929,273.572c0,56.623-45.904,102.528-102.528,102.528
			c-56.604,0-102.508-45.905-102.508-102.528c0-56.613,45.905-102.518,102.508-102.518
			C917.024,171.054,962.929,216.959,962.929,273.572z"/>
		<path style="fill:#F1F2F2;" d="M937.75,273.572c0,42.719-34.631,77.34-77.349,77.34c-42.699,0-77.33-34.621-77.33-77.34
			c0-42.708,34.631-77.33,77.33-77.33C903.119,196.242,937.75,230.864,937.75,273.572z"/>
		<path style="fill:#6878BA;" d="M866.735,273.572c0,3.498-2.836,6.334-6.334,6.334c-3.488,0-6.314-2.835-6.314-6.334
			s2.826-6.324,6.314-6.324C863.899,267.248,866.735,270.074,866.735,273.572z"/>
		
			<line style="fill:none;stroke:#6878BA;stroke-width:4.4373;stroke-miterlimit:10;" x1="860.401" y1="273.572" x2="860.401" y2="211.979"/>
		
			<line style="fill:none;stroke:#6878BA;stroke-width:4.4373;stroke-miterlimit:10;" x1="860.401" y1="273.572" x2="887.538" y2="246.445"/>
	</g>
	<g>
		<g>
			<path style="fill:#C49A6C;" d="M2063.378,452.017h-387.526c-3.352,0-6.061,2.719-6.061,6.061v16.147
				c0,3.352,2.709,6.061,6.061,6.061h387.526c3.343,0,6.051-2.709,6.051-6.061v-16.147
				C2069.429,454.736,2066.72,452.017,2063.378,452.017z"/>
		</g>
		<g>
			<g>
				<rect x="1872.168" y="402.371" style="fill:#8DC63F;" width="186.669" height="48.945"/>
				<rect x="1888.821" y="413.479" style="fill:#FFFFFF;" width="170.016" height="26.738"/>
			</g>
			<g>
				<rect x="1882.136" y="415.224" style="fill:#BCBEC0;" width="176.701" height="1.51"/>
			</g>
			<g>
				<rect x="1882.136" y="420.534" style="fill:#BCBEC0;" width="176.701" height="1.52"/>
			</g>
			<g>
				<rect x="1882.136" y="425.855" style="fill:#BCBEC0;" width="176.701" height="1.51"/>
			</g>
			<g>
				<rect x="1882.136" y="431.165" style="fill:#BCBEC0;" width="176.701" height="1.51"/>
			</g>
			<g>
				<rect x="1882.136" y="436.485" style="fill:#BCBEC0;" width="176.701" height="1.51"/>
			</g>
			<polygon style="fill:#8DC63F;" points="2058.837,413.479 2058.837,402.371 1872.168,402.371 1872.168,451.316 2058.837,451.316 
				2058.837,440.217 1888.821,440.217 1888.821,413.479 			"/>
		</g>
		<g>
			<g>
				<rect x="1872.168" y="351.107" style="fill:#8DC63F;" width="186.669" height="48.945"/>
				<rect x="1888.821" y="362.205" style="fill:#FFFFFF;" width="170.016" height="26.748"/>
			</g>
			<g>
				<rect x="1882.136" y="363.959" style="fill:#BCBEC0;" width="176.701" height="1.51"/>
			</g>
			<g>
				<rect x="1882.136" y="369.27" style="fill:#BCBEC0;" width="176.701" height="1.51"/>
			</g>
			<g>
				<rect x="1882.136" y="374.581" style="fill:#BCBEC0;" width="176.701" height="1.52"/>
			</g>
			<g>
				<rect x="1882.136" y="379.901" style="fill:#BCBEC0;" width="176.701" height="1.511"/>
			</g>
			<g>
				<rect x="1882.136" y="385.212" style="fill:#BCBEC0;" width="176.701" height="1.52"/>
			</g>
			<polygon style="fill:#F2676D;" points="2058.837,362.205 2058.837,351.107 1872.168,351.107 1872.168,400.052 2058.837,400.052 
				2058.837,388.953 1888.821,388.953 1888.821,362.205 			"/>
		</g>
		<g>
			<g>
				<polygon style="fill:#8DC63F;" points="1789.625,260.476 1858.302,434.069 1812.787,452.076 1744.12,278.483 				"/>
				<polygon style="fill:#FFFFFF;" points="1779.315,264.559 1754.439,274.401 1816.986,432.509 1841.864,422.678 				"/>
			</g>
			<g>
				<polygon style="fill:#BCBEC0;" points="1757.489,273.202 1822.472,437.528 1821.069,438.083 1756.076,273.757 				"/>
			</g>
			<g>
				<polygon style="fill:#BCBEC0;" points="1762.429,271.243 1827.422,435.579 1826.01,436.125 1761.026,271.799 				"/>
			</g>
			<g>
				<polygon style="fill:#BCBEC0;" points="1767.36,269.285 1832.363,433.611 1830.96,434.176 1765.956,269.841 				"/>
			</g>
			<g>
				<polygon style="fill:#BCBEC0;" points="1772.3,267.327 1837.293,431.662 1835.89,432.217 1770.896,267.891 				"/>
			</g>
			<g>
				<polygon style="fill:#BCBEC0;" points="1777.25,265.377 1842.253,429.703 1840.83,430.268 1775.837,265.943 				"/>
			</g>
			<polygon style="fill:#F2676D;" points="1754.439,274.401 1744.12,278.483 1812.787,452.076 1858.302,434.069 1789.625,260.476 
				1779.315,264.559 1841.864,422.678 1816.986,432.509 			"/>
		</g>
	</g>
	<g>
		<path style="fill:#A97C50;" d="M2068.357,1665.226c-407.833,0-381.728-6.47-381.728,15.084c0,54.762-3.05,88.34,6.578,88.34
			c407.735,0,381.738,6.509,381.738-15.084C2074.944,1698.58,2077.975,1665.226,2068.357,1665.226z"/>
		<path style="fill:#A97C50;" d="M2068.357,840.654c-400.291,0-381.728-3.011-381.728,6.568c0,29.886-2.231,38.558,6.578,38.558
			c400.388,0,381.738,3.001,381.738-6.587C2074.944,849.258,2077.146,840.654,2068.357,840.654z"/>
		<path style="fill:#A97C50;" d="M2068.357,1047.708c-400.291,0-381.728-3.011-381.728,6.568c0,29.885-2.231,38.568,6.578,38.568
			c400.388,0,381.738,2.991,381.738-6.597C2074.944,1056.312,2077.146,1047.708,2068.357,1047.708z"/>
		<path style="fill:#A97C50;" d="M2068.357,1254.762c-400.408,0-381.728-3.001-381.728,6.578c0,29.895-2.231,38.548,6.578,38.548
			c400.281,0,381.738,3.011,381.738-6.578C2074.944,1263.366,2077.146,1254.762,2068.357,1254.762z"/>
		<path style="fill:#A97C50;" d="M2068.357,1461.816c-400.408,0-381.728-3.001-381.728,6.578c0,30.002-2.202,38.548,6.578,38.548
			c400.281,0,381.738,3.001,381.738-6.577C2074.944,1470.42,2077.146,1461.816,2068.357,1461.816z"/>
		<g>
			<g>
				<g>
					<path style="fill:#939598;" d="M1989.887,1214.802c0.321,4.239-0.604,2.436,4.482,7.942
						C2001.678,1211.839,1996.971,1214.266,1989.887,1214.802z"/>
				</g>
				<g>
					<path style="fill:#3B7BBF;" d="M1991.096,1129.91c-0.39-5.067-8.078-4.511-7.698,0.595c7.552,98.28,3.479,85.622,14.275,84.803
						L1991.096,1129.91z"/>
					<path style="fill:#B7D5E7;" d="M1992.518,1148.181c-0.565-6.948,1.52-5.554-8.136-4.814
						C1984.927,1150.324,1982.852,1148.911,1992.518,1148.181z"/>
					<path style="fill:#B7D5E7;" d="M1994.038,1168.117c-0.974-12.668,1.228-10.222-8.487-9.472
						C1986.525,1171.313,1984.323,1168.867,1994.038,1168.117z"/>
				</g>
				<path style="fill:#F04F65;" d="M1991.32,1132.775c-0.712-9.199-8.419-8.653-7.708,0.604L1991.32,1132.775z"/>
				<path style="fill:#6D6E71;" d="M1987.071,1162.748c-3.03,0.234-1.822,4.599-4.434-29.311
					C1985.668,1133.204,1984.46,1128.838,1987.071,1162.748z"/>
				<g>
					<path style="fill:#F04F65;" d="M1990.014,1216.74l0.127,1.423l0.048,0.058c9.861-0.76,7.182-0.019,7.64-0.653
						C1997.683,1215.669,1999.271,1216.029,1990.014,1216.74z"/>
				</g>
				<g>
					<path style="fill:#585B5C;" d="M1992.119,1220.316c2.924,3.177,1.774,3.148,4.093-0.321L1992.119,1220.316z"/>
				</g>
			</g>
			<g>
				<g>
					<path style="fill:#939598;" d="M2001.181,1130.855c-0.312-4.219,0.585-2.426-4.472-7.942
						C1989.38,1133.769,1994.068,1131.382,2001.181,1130.855z"/>
				</g>
				<g>
					<path style="fill:#3B7BBF;" d="M1999.748,1215.747c0.38,5.126,8.088,4.502,7.708-0.565
						c-7.318-98.348-3.284-85.642-14.071-84.833L1999.748,1215.747z"/>
					<path style="fill:#B7D5E7;" d="M1998.404,1197.486c0.497,6.996-1.559,5.544,8.098,4.813
						C2005.975,1195.313,2008.05,1196.775,1998.404,1197.486z"/>
					<path style="fill:#B7D5E7;" d="M1996.903,1177.53c0.945,12.677-1.247,10.221,8.458,9.51
						C2004.425,1174.344,2006.608,1176.799,1996.903,1177.53z"/>
				</g>
				<path style="fill:#F04F65;" d="M1999.534,1212.892c0.692,9.296,8.39,8.516,7.717-0.575L1999.534,1212.892z"/>
				<path style="fill:#6D6E71;" d="M2003.851,1182.918c3.03-0.224,1.832-4.579,4.365,29.321
					C2005.176,1212.482,2006.375,1216.828,2003.851,1182.918z"/>
				<g>
					<path style="fill:#F04F65;" d="M2001.034,1128.926l-0.107-1.423l-0.049-0.058c-9.851,0.74-7.172,0.01-7.659,0.643
						C1993.366,1129.969,1991.778,1129.598,2001.034,1128.926z"/>
				</g>
				<g>
					<path style="fill:#585B5C;" d="M1998.939,1125.35c-2.904-3.186-1.734-3.148-4.063,0.292L1998.939,1125.35z"/>
				</g>
			</g>
			<g>
				<g>
					<path style="fill:#A677B4;" d="M1973.78,1231.24c0,4.346-5.009,3.868-3.859,3.868c-5.525,0-3.869,1.861-3.869-103.395
						c0-1.374,1.072-3.878,3.869-3.878C1975.417,1127.834,1973.78,1126.266,1973.78,1231.24z"/>
					<path style="fill:#B7D5E7;" d="M1973.78,1150.032c0-7.016,1.958-5.408-7.728-5.408
						C1966.053,1151.62,1964.104,1150.032,1973.78,1150.032z"/>
					<path style="fill:#B7D5E7;" d="M1973.78,1170.027c0-12.706,1.997-10.085-7.728-10.085
						C1966.053,1172.648,1964.055,1170.027,1973.78,1170.027z"/>
				</g>
				<path style="fill:#9CBAD2;" d="M1973.78,1134.578c0-7.045-7.728-10.884-7.728,0H1973.78z"/>
				<path style="fill:#6D6E71;" d="M1967.252,1164.141c-3.05,0-2.173,4.443-2.173-29.564
					C1968.128,1134.578,1967.252,1130.144,1967.252,1164.141z"/>
			</g>
			<g>
				<g>
					<path style="fill:#FBAD4B;" d="M2016.703,1125.584c10.952,2.621,11.518-14.003-17.267,107.069
						C1988.474,1230.061,1987.919,1246.665,2016.703,1125.584z"/>
					<path style="fill:#808285;" d="M1997.439,1232.175c28.599-120.292,26.602-104.838,21.262-106.104
						C1990.092,1246.373,1992.09,1230.909,1997.439,1232.175z"/>
					<path style="fill:#F04F65;" d="M1991.223,1230.958c-1.354,5.719,7.162,7.727,8.575,2.026L1991.223,1230.958z"/>
					<path style="fill:#BCBEC0;" d="M1991.378,1228.881c11.03,2.621,9.423,1.228,8.507,5.106
						C1988.854,1231.386,1990.453,1232.789,1991.378,1228.881z"/>
				</g>
				<path style="fill:#FBA92D;" d="M2022.491,1118.383c2.378,10.855,3.956,9.55-5.817,7.201
					C2020.308,1121.062,2018.974,1122.719,2022.491,1118.383z"/>
				<path style="fill:#414042;" d="M2023.553,1123.245c-1.403-6.626-0.253-5.729-4.2-1.004L2023.553,1123.245z"/>
			</g>
			<g>
				<path style="fill:#FBAD4B;" d="M1982.628,1234.202c-9.471,0-6.675,15.864-6.675-108.15
					C1985.424,1126.051,1982.628,1110.178,1982.628,1234.202z"/>
				<path style="fill:#808285;" d="M1977.668,1126.051c0,120.175-1.462,108.15,3.235,108.15
					C1980.903,1114.037,1982.365,1126.051,1977.668,1126.051z"/>
				<path style="fill:#F04F65;" d="M1982.969,1125.808c0-5.827-7.377-5.896-7.377,0H1982.969z"/>
				<path style="fill:#BCBEC0;" d="M1983.251,1127.834c-9.53,0-7.932,1.004-7.932-2.991
					C1984.849,1124.843,1983.251,1123.859,1983.251,1127.834z"/>
			</g>
			<g>
				<path style="fill:#BCBEC0;" d="M1958.687,1172.005c-3.343,0-6.042,2.865-5.749,6.266c6.792,76.813,4.921,76.414,12.025,76.414
					c43.264,0,48.351,1.939,48.984-5.271C2022.443,1152.975,2036.328,1172.005,1958.687,1172.005z"/>
				<path style="fill:#F1F2F2;" d="M2015.71,1229.515c2.407-27.41,14.178-20.56-60.054-20.56
					C1958.063,1236.365,1945.804,1229.515,2015.71,1229.515z"/>
			</g>
		</g>
		<g>
			<g>
				<rect x="1800.529" y="1222.499" style="fill:#8DC63F;" width="127.688" height="33.471"/>
				<path style="fill:#FFFFFF;" d="M1928.216,1248.38c0-24.389,20.346-18.29-116.307-18.29
					C1811.91,1254.47,1791.545,1248.38,1928.216,1248.38z"/>
			</g>
			<g>
				<path style="fill:#BCBEC0;" d="M1928.216,1232.322c-130.318,0-120.876,0.585-120.876-1.043
					C1937.649,1231.279,1928.216,1230.704,1928.216,1232.322z"/>
			</g>
			<g>
				<path style="fill:#BCBEC0;" d="M1928.216,1235.956c-130.309,0-120.876,0.565-120.876-1.033
					C1937.649,1234.923,1928.216,1234.348,1928.216,1235.956z"/>
			</g>
			<g>
				<path style="fill:#BCBEC0;" d="M1928.216,1239.591c-130.318,0-120.876,0.575-120.876-1.043
					C1937.649,1238.548,1928.216,1237.973,1928.216,1239.591z"/>
			</g>
			<g>
				<path style="fill:#BCBEC0;" d="M1928.216,1243.235c-130.318,0-120.876,0.575-120.876-1.043
					C1937.649,1242.192,1928.216,1241.618,1928.216,1243.235z"/>
			</g>
			<g>
				<path style="fill:#BCBEC0;" d="M1928.216,1246.86c-130.318,0-120.876,0.575-120.876-1.043
					C1937.649,1245.817,1928.216,1245.252,1928.216,1246.86z"/>
			</g>
			<path style="fill:#8DC63F;" d="M1928.216,1230.09c0-10.835,18.115-7.591-127.688-7.591v33.471h127.688
				c0-10.66,17.267-7.591-116.307-7.591C1811.91,1223.99,1791.545,1230.09,1928.216,1230.09z"/>
		</g>
		<g>
			<g>
				<rect x="1800.529" y="1187.43" style="fill:#8DC63F;" width="127.688" height="33.491"/>
				<path style="fill:#FFFFFF;" d="M1928.216,1213.32c0-24.399,20.346-18.3-116.307-18.3
					C1811.91,1219.42,1791.545,1213.32,1928.216,1213.32z"/>
			</g>
			<g>
				<path style="fill:#BCBEC0;" d="M1928.216,1197.252c-130.309,0-120.876,0.565-120.876-1.023
					C1937.649,1196.229,1928.216,1195.654,1928.216,1197.252z"/>
			</g>
			<g>
				<path style="fill:#BCBEC0;" d="M1928.216,1200.897c-130.309,0-120.876,0.565-120.876-1.033
					C1937.649,1199.863,1928.216,1199.289,1928.216,1200.897z"/>
			</g>
			<g>
				<path style="fill:#BCBEC0;" d="M1928.216,1204.531c-130.318,0-120.876,0.585-120.876-1.043
					C1937.649,1203.488,1928.216,1202.923,1928.216,1204.531z"/>
			</g>
			<g>
				<path style="fill:#BCBEC0;" d="M1928.216,1208.166c-130.318,0-120.876,0.575-120.876-1.033
					C1937.649,1207.133,1928.216,1206.558,1928.216,1208.166z"/>
			</g>
			<g>
				<path style="fill:#BCBEC0;" d="M1928.216,1211.8c-130.318,0-120.876,0.575-120.876-1.023
					C1937.649,1210.777,1928.216,1210.183,1928.216,1211.8z"/>
			</g>
			<path style="fill:#F2676D;" d="M1928.216,1195.021c0-10.835,18.115-7.591-127.688-7.591v33.491h127.688
				c0-10.66,17.267-7.6-116.307-7.6C1811.91,1188.921,1791.545,1195.021,1928.216,1195.021z"/>
		</g>
		<g>
			<g>
				<rect x="1825.104" y="1427.868" style="fill:#8DC63F;" width="127.678" height="33.481"/>
				<path style="fill:#FFFFFF;" d="M1952.782,1453.748c0-24.38,20.365-18.28-116.287-18.28
					C1836.495,1459.838,1816.119,1453.748,1952.782,1453.748z"/>
			</g>
			<g>
				<path style="fill:#BCBEC0;" d="M1952.782,1437.699c-130.309,0-120.867,0.575-120.867-1.043
					C1962.224,1436.657,1952.782,1436.082,1952.782,1437.699z"/>
			</g>
			<g>
				<path style="fill:#BCBEC0;" d="M1952.782,1441.324c-130.299,0-120.867,0.565-120.867-1.023
					C1962.224,1440.301,1952.782,1439.726,1952.782,1441.324z"/>
			</g>
			<g>
				<path style="fill:#BCBEC0;" d="M1952.782,1444.968c-130.309,0-120.867,0.575-120.867-1.033
					C1962.224,1443.936,1952.782,1443.351,1952.782,1444.968z"/>
			</g>
			<g>
				<path style="fill:#BCBEC0;" d="M1952.782,1448.593c-130.309,0-120.867,0.585-120.867-1.033
					C1962.224,1447.561,1952.782,1446.985,1952.782,1448.593z"/>
			</g>
			<g>
				<path style="fill:#BCBEC0;" d="M1952.782,1452.238c-130.299,0-120.867,0.555-120.867-1.033
					C1962.224,1451.205,1952.782,1450.63,1952.782,1452.238z"/>
			</g>
			<path style="fill:#8DC63F;" d="M1952.782,1435.468c0-10.845,18.134-7.6-127.678-7.6v33.481h127.678
				c0-10.67,17.091-7.6-116.287-7.6C1836.495,1429.368,1816.119,1435.468,1952.782,1435.468z"/>
		</g>
		<g>
			<g>
				<rect x="1825.104" y="1392.798" style="fill:#8DC63F;" width="127.678" height="33.491"/>
				<path style="fill:#FFFFFF;" d="M1952.782,1418.679c0-24.37,20.365-18.28-116.287-18.28
					C1836.495,1424.779,1816.119,1418.679,1952.782,1418.679z"/>
			</g>
			<g>
				<path style="fill:#BCBEC0;" d="M1952.782,1402.63c-130.299,0-120.867,0.565-120.867-1.033
					C1962.224,1401.597,1952.782,1401.022,1952.782,1402.63z"/>
			</g>
			<g>
				<path style="fill:#BCBEC0;" d="M1952.782,1406.275c-130.309,0-120.867,0.565-120.867-1.043
					C1962.224,1405.232,1952.782,1404.647,1952.782,1406.275z"/>
			</g>
			<g>
				<path style="fill:#BCBEC0;" d="M1952.782,1409.909c-130.309,0-120.867,0.575-120.867-1.043
					C1962.224,1408.866,1952.782,1408.292,1952.782,1409.909z"/>
			</g>
			<g>
				<path style="fill:#BCBEC0;" d="M1952.782,1413.534c-130.309,0-120.867,0.584-120.867-1.033
					C1962.224,1412.501,1952.782,1411.926,1952.782,1413.534z"/>
			</g>
			<g>
				<path style="fill:#BCBEC0;" d="M1952.782,1417.178c-130.309,0-120.867,0.575-120.867-1.043
					C1962.224,1416.135,1952.782,1415.561,1952.782,1417.178z"/>
			</g>
			<path style="fill:#F2676D;" d="M1952.782,1400.399c0-10.845,18.134-7.6-127.678-7.6v33.491h127.678
				c0-10.66,17.266-7.61-116.287-7.61C1836.495,1394.308,1816.119,1400.399,1952.782,1400.399z"/>
		</g>
		<g>
			<g>
				<rect x="1825.104" y="1358.976" style="fill:#8DC63F;" width="127.678" height="33.481"/>
				<path style="fill:#FFFFFF;" d="M1952.782,1384.857c0-24.38,20.365-18.28-116.287-18.28
					C1836.495,1390.947,1816.119,1384.857,1952.782,1384.857z"/>
			</g>
			<g>
				<path style="fill:#BCBEC0;" d="M1952.782,1368.808c-130.202,0-120.867,0.585-120.867-1.043
					C1962.116,1367.765,1952.782,1367.181,1952.782,1368.808z"/>
			</g>
			<g>
				<path style="fill:#BCBEC0;" d="M1952.782,1372.433c-130.299,0-120.867,0.565-120.867-1.023
					C1962.224,1371.41,1952.782,1370.835,1952.782,1372.433z"/>
			</g>
			<g>
				<path style="fill:#BCBEC0;" d="M1952.782,1376.077c-130.309,0-120.867,0.575-120.867-1.042
					C1962.224,1375.035,1952.782,1374.46,1952.782,1376.077z"/>
			</g>
			<g>
				<path style="fill:#BCBEC0;" d="M1952.782,1379.712c-130.309,0-120.867,0.575-120.867-1.043
					C1962.224,1378.669,1952.782,1378.094,1952.782,1379.712z"/>
			</g>
			<g>
				<path style="fill:#BCBEC0;" d="M1952.782,1383.347c-130.309,0-120.867,0.575-120.867-1.033
					C1962.224,1382.313,1952.782,1381.739,1952.782,1383.347z"/>
			</g>
			<path style="fill:#8DC63F;" d="M1952.782,1366.577c0-10.845,18.134-7.6-127.678-7.6v33.481h127.678
				c0-10.67,17.091-7.6-116.287-7.6C1836.495,1360.477,1816.119,1366.577,1952.782,1366.577z"/>
		</g>
		<g>
			<g>
				<rect x="1825.104" y="1323.907" style="fill:#8DC63F;" width="127.678" height="33.481"/>
				<path style="fill:#FFFFFF;" d="M1952.782,1349.807c0-24.399,20.375-18.29-116.287-18.29
					C1836.495,1355.907,1816.109,1349.807,1952.782,1349.807z"/>
			</g>
			<g>
				<path style="fill:#BCBEC0;" d="M1952.782,1333.749c-130.309,0-120.867,0.575-120.867-1.043
					C1962.224,1332.706,1952.782,1332.131,1952.782,1333.749z"/>
			</g>
			<g>
				<path style="fill:#BCBEC0;" d="M1952.782,1337.373c-130.309,0-120.867,0.575-120.867-1.023
					C1962.224,1336.35,1952.782,1335.775,1952.782,1337.373z"/>
			</g>
			<g>
				<path style="fill:#BCBEC0;" d="M1952.782,1341.018c-130.309,0-120.867,0.575-120.867-1.043
					C1962.224,1339.975,1952.782,1339.4,1952.782,1341.018z"/>
			</g>
			<g>
				<path style="fill:#BCBEC0;" d="M1952.782,1344.643c-130.309,0-120.867,0.575-120.867-1.033
					C1962.224,1343.609,1952.782,1343.035,1952.782,1344.643z"/>
			</g>
			<g>
				<path style="fill:#BCBEC0;" d="M1952.782,1348.287c-130.309,0-120.867,0.575-120.867-1.043
					C1962.224,1347.244,1952.782,1346.669,1952.782,1348.287z"/>
			</g>
			<path style="fill:#F2676D;" d="M1952.782,1331.517c0-10.855,18.134-7.61-127.678-7.61v33.481h127.678
				c0-10.631,17.266-7.581-116.287-7.581C1836.495,1325.408,1816.109,1331.517,1952.782,1331.517z"/>
		</g>
		<g>
			<g>
				<polygon style="fill:#8DC63F;" points="1744.071,1125.457 1791.038,1244.17 1759.905,1256.487 1712.948,1137.774 				"/>
				<path style="fill:#FFFFFF;" d="M1737.016,1128.254c-22.684,8.955-24.536-12.316,25.764,114.855
					C1785.484,1234.144,1787.296,1255.327,1737.016,1128.254z"/>
			</g>
			<g>
				<path style="fill:#BCBEC0;" d="M1722.098,1134.159c47.912,121.169,44.969,112.165,43.478,112.76
					C1717.655,1125.759,1720.578,1134.753,1722.098,1134.159z"/>
			</g>
			<g>
				<path style="fill:#BCBEC0;" d="M1725.459,1132.823c47.951,121.169,45.008,112.175,43.498,112.76
					C1721.026,1124.424,1723.959,1133.418,1725.459,1132.823z"/>
			</g>
			<g>
				<path style="fill:#BCBEC0;" d="M1728.85,1131.479c47.912,121.159,44.969,112.185,43.498,112.769
					C1724.407,1123.07,1727.36,1132.093,1728.85,1131.479z"/>
			</g>
			<g>
				<path style="fill:#BCBEC0;" d="M1732.232,1130.154c47.912,121.139,44.969,112.175,43.498,112.759
					C1727.798,1121.764,1730.731,1130.719,1732.232,1130.154z"/>
			</g>
			<g>
				<path style="fill:#BCBEC0;" d="M1735.603,1128.809c47.931,121.179,44.979,112.166,43.488,112.77
					C1731.17,1120.4,1734.112,1129.394,1735.603,1128.809z"/>
			</g>
			<path style="fill:#F2676D;" d="M1720.012,1134.967c-9.958,3.946-13.914-14.509,39.893,121.52l31.133-12.316l-46.967-118.713
				c-9.89,3.927-13.389-13.214,35.722,110.927C1757.109,1245.349,1770.292,1262.08,1720.012,1134.967z"/>
		</g>
		<g>
			<g>
				<g>
					<path style="fill:#8B5E3C;" d="M1956.874,764.455c-15.094,30.353-11.703,45.895-12.707,56.175
						c-0.507,4.989-3.664-9.696,0.721-30.373C1950.706,762.691,1957.878,764.455,1956.874,764.455z"/>
				</g>
				<g>
					<path style="fill:#39B54A;" d="M1952.391,770.75c0.38-3.342,2.846-11.118-7.162-23.347c6.178-0.487,9.715,6.753,10.007,6.802
						c0.857-5.31-0.799-12.911-3.761-16.604c4.443-0.253,9.072,3.518,12.277,6.977c1.822-9.383-9.432-29.73,6.675-8.779
						c1.228-5.545-0.565-12.95-0.185-18.631c2.826,1.617,5.486,7.045,5.729,10.114c23.912-26.962,9.423,0.634,3.342,4.697
						c2.456-1.364,9.93,1.715,12.521,2.972c-11.284,1.033-13.69,2.651-18.339,8.146c3.596-0.614,9.267-1.12,12.356,1.238
						c-32.633,11.05-9.861,6.597-5.067,12.463c-33.774,11.206-12.307-0.896-6.422,10.982
						C1959.505,762.389,1954.681,770.75,1952.391,770.75z"/>
				</g>
			</g>
			<g>
				<g>
					<path style="fill:#8B5E3C;" d="M1919.632,750.998c17.014,34.134,13.106,51.576,14.256,63.045
						c0.536,5.944,4.141-10.835-0.799-34.075C1930.564,768.031,1924.397,750.998,1919.632,750.998z"/>
				</g>
				<g>
					<path style="fill:#39B54A;" d="M1923.023,755.539c-0.409-3.742-3.167-12.472,8.039-26.183
						c-6.919-0.555-10.894,7.571-11.206,7.61c-0.984-5.944,0.896-14.46,4.219-18.63c-4.989-0.263-10.193,3.966-13.779,7.834
						c-2.056-10.514,10.582-33.393-7.484-9.842c-1.384-6.217,0.624-14.529,0.205-20.901c-3.187,1.802-6.168,7.893-6.431,11.342
						c-27.04-30.47-10.543,0.75-3.752,5.271c-2.757-1.52-11.137,1.939-14.051,3.323c12.668,1.179,15.367,2.972,20.56,9.14
						c-4.015-0.682-10.387-1.238-13.837,1.383c36.512,12.414,11.079,7.416,5.671,13.993c8.019,2.69,6.636-1.715,20.775,5.954
						c-3.879-0.176-10.115-0.604-13.574,6.372C1912.83,746.974,1923.666,755.539,1923.023,755.539z"/>
				</g>
			</g>
			<g>
				<g>
					<path style="fill:#8B5E3C;" d="M1941.576,711.943c6.411,53.954-7.133,75.03-11.147,91.02
						c-1.939,7.659,10.679-12.316,15.259-45.905C1946.828,748.728,1949.4,711.943,1941.576,711.943z"/>
				</g>
				<g>
					<path style="fill:#39B54A;" d="M1943.953,719.622c1.228-5.194,1.705-18.164,23.26-31.104
						c-8.984-4.064-18.173,4.882-18.621,4.804c1.559-8.419,8.117-18.894,14.568-22.87c-6.539-2.757-15.503,0.4-22.168,3.859
						c2.29-14.948,30.08-39.541-5.262-16.701c1.121-8.994,7.766-19.128,10.29-27.839c-5.125,0.867-12.025,7.581-14.061,12.083
						c-21.339-53.34-14.441-4.131-7.493,5.232c-2.982-3.352-15.834-2.748-20.385-2.28c16.38,7.63,19.108,11.332,23.103,22.041
						c-5.038-2.845-13.291-6.626-19.167-4.775c42.933,34.163,11.245,15.211,0.877,21.408c9.54,7.494,9.55,0.731,24.906,17.9
						c-5.086-2.105-13.213-5.681-21.184,1.998C1934.248,703.32,1944.596,719.622,1943.953,719.622z"/>
				</g>
			</g>
			<g>
				<path style="fill:#8B5E3C;" d="M1972.095,777.278c-0.507-0.624-58.504-1.296-58.085,0.926
					c13.291,67.079,12.122,63.308,13.447,63.308c33.764,0,32.244,0.4,32.487-0.887
					C1973.186,773.945,1972.601,777.921,1972.095,777.278z"/>
			</g>
		</g>
		<g>
			<g>
				<g>
					<rect x="1721.572" y="647.106" style="fill:#8DC63F;" width="115.956" height="30.392"/>
					<path style="fill:#FFFFFF;" d="M1837.527,670.608c0-22.148,18.504-16.613-105.608-16.613
						C1731.92,676.153,1713.406,670.608,1837.527,670.608z"/>
				</g>
				<g>
					<path style="fill:#BCBEC0;" d="M1837.527,656.031c-122.007,0-109.748,0.419-109.748-0.945
						C1849.785,655.086,1837.527,654.667,1837.527,656.031z"/>
				</g>
				<g>
					<path style="fill:#BCBEC0;" d="M1837.527,659.325c-122.007,0-109.748,0.419-109.748-0.925
						C1849.785,658.399,1837.527,657.961,1837.527,659.325z"/>
				</g>
				<g>
					<path style="fill:#BCBEC0;" d="M1837.527,662.638c-122.007,0-109.748,0.4-109.748-0.945
						C1849.785,661.693,1837.527,661.274,1837.527,662.638z"/>
				</g>
				<g>
					<path style="fill:#BCBEC0;" d="M1837.527,665.931c-122.007,0-109.748,0.4-109.748-0.945
						C1849.785,664.986,1837.527,664.567,1837.527,665.931z"/>
				</g>
				<g>
					<path style="fill:#BCBEC0;" d="M1837.527,669.225c-122.007,0-109.748,0.419-109.748-0.925
						C1849.785,668.299,1837.527,667.88,1837.527,669.225z"/>
				</g>
				<path style="fill:#8DC63F;" d="M1837.527,653.995c0-9.666,17.179-6.889-115.956-6.889v30.392h115.956
					c0-9.647,15.971-6.889-105.608-6.889C1731.92,648.46,1713.406,653.995,1837.527,653.995z"/>
			</g>
			<g>
				<g>
					<rect x="1730.682" y="677.498" style="fill:#8DC63F;" width="115.946" height="30.412"/>
					<path style="fill:#FFFFFF;" d="M1846.628,701.01c0-22.149,18.504-16.614-105.607-16.614
						C1741.021,706.555,1722.517,701.01,1846.628,701.01z"/>
				</g>
				<g>
					<path style="fill:#BCBEC0;" d="M1846.628,686.433c-121.997,0-109.758,0.419-109.758-0.935
						C1858.877,685.498,1846.628,685.069,1846.628,686.433z"/>
				</g>
				<g>
					<path style="fill:#BCBEC0;" d="M1846.628,689.727c-121.997,0-109.758,0.419-109.758-0.945
						C1858.877,688.781,1846.628,688.382,1846.628,689.727z"/>
				</g>
				<g>
					<path style="fill:#BCBEC0;" d="M1846.628,693.02c-121.997,0-109.758,0.419-109.758-0.935
						C1858.877,692.085,1846.628,691.675,1846.628,693.02z"/>
				</g>
				<g>
					<path style="fill:#BCBEC0;" d="M1846.628,696.333c-119.366,0-109.758,0.458-109.758-0.945
						C1856.236,695.388,1846.628,694.94,1846.628,696.333z"/>
				</g>
				<g>
					<path style="fill:#BCBEC0;" d="M1846.628,699.627c-121.997,0-109.758,0.419-109.758-0.926
						C1858.877,698.701,1846.628,698.273,1846.628,699.627z"/>
				</g>
				<path style="fill:#F2676D;" d="M1846.628,684.396c0-9.656,17.452-6.899-115.946-6.899v30.412h115.946
					c0-9.676,15.62-6.899-105.607-6.899C1741.021,678.862,1722.517,684.396,1846.628,684.396z"/>
			</g>
			<g>
				<g>
					<rect x="1735.915" y="616.558" style="fill:#8DC63F;" width="115.946" height="30.402"/>
					<path style="fill:#FFFFFF;" d="M1851.861,640.051c0-22.129,18.494-16.604-105.608-16.604
						C1746.254,645.586,1727.749,640.051,1851.861,640.051z"/>
				</g>
				<g>
					<path style="fill:#BCBEC0;" d="M1851.861,625.483c-122.007,0-109.758,0.4-109.758-0.945
						C1864.109,624.538,1851.861,624.129,1851.861,625.483z"/>
				</g>
				<g>
					<path style="fill:#BCBEC0;" d="M1851.861,628.777c-122.007,0-109.758,0.419-109.758-0.935
						C1864.109,627.841,1851.861,627.432,1851.861,628.777z"/>
				</g>
				<g>
					<path style="fill:#BCBEC0;" d="M1851.861,632.07c-122.007,0-109.758,0.419-109.758-0.945
						C1864.109,631.125,1851.861,630.726,1851.861,632.07z"/>
				</g>
				<g>
					<path style="fill:#BCBEC0;" d="M1851.861,635.393c-119.366,0-109.758,0.438-109.758-0.955
						C1861.459,634.438,1851.861,633.981,1851.861,635.393z"/>
				</g>
				<g>
					<path style="fill:#BCBEC0;" d="M1851.861,638.677c-122.007,0-109.758,0.419-109.758-0.926
						C1864.109,637.751,1851.861,637.332,1851.861,638.677z"/>
				</g>
				<path style="fill:#2EAAE1;" d="M1851.861,623.447c0-9.715,16.974-6.889-115.946-6.889v30.401h115.946
					c0-9.686,15.571-6.909-105.608-6.909C1746.254,617.922,1727.749,623.447,1851.861,623.447z"/>
			</g>
			<g>
				<path style="fill:#EEBC3B;" d="M1764.602,707.373c-29.759,0-30.567-0.721-30.567,1.734c0,141.797-0.78,133.466,1.744,133.466
					c29.739,0,30.548,0.721,30.548-1.735C1766.327,699.052,1767.126,707.373,1764.602,707.373z"/>
				<path style="fill:#FFFFFF;" d="M1761.435,736.635c-28.317,0-22.48,5.233-22.48-20.18
					C1767.252,716.455,1761.435,711.222,1761.435,736.635z"/>
			</g>
			<g>
				<path style="fill:#EEBC3B;" d="M1799.759,707.373c-29.729,0-30.538-0.721-30.538,1.734c0,141.797-0.799,133.466,1.725,133.466
					c29.681,0,30.548,0.731,30.548-1.735C1801.494,699.052,1802.292,707.373,1799.759,707.373z"/>
				<path style="fill:#FFFFFF;" d="M1796.611,736.635c-28.326,0-22.499,5.233-22.499-20.18
					C1802.429,716.455,1796.611,711.222,1796.611,736.635z"/>
			</g>
			<g>
				<path style="fill:#EEBC3B;" d="M1834.916,707.373c-29.729,0-30.548-0.721-30.548,1.734c0,141.417-0.799,133.466,1.735,133.466
					c29.749,0,30.567,0.711,30.567-1.735C1836.67,699.052,1837.459,707.373,1834.916,707.373z"/>
				<path style="fill:#FFFFFF;" d="M1831.759,736.635c-28.307,0-22.48,5.233-22.48-20.18
					C1837.596,716.455,1831.759,711.222,1831.759,736.635z"/>
			</g>
		</g>
		<g>
			<path style="fill:#EEBC3B;" d="M1755.404,899.889c-32.516,0-33.393-0.789-33.393,1.89c0,152.691-1.052,145.929,1.861,145.929
				c32.516,0,33.422,0.789,33.422-1.9C1757.294,892.834,1758.317,899.889,1755.404,899.889z"/>
			<path style="fill:#FFFFFF;" d="M1751.944,931.879c-30.967,0-24.594,5.72-24.594-22.061
				C1758.317,909.818,1751.944,904.098,1751.944,931.879z"/>
		</g>
		<g>
			<path style="fill:#EEBC3B;" d="M1793.854,899.889c-32.516,0-33.413-0.78-33.413,1.89c0,153.003-1.013,145.929,1.89,145.929
				c32.516,0,33.423,0.789,33.423-1.9C1795.754,892.834,1796.767,899.889,1793.854,899.889z"/>
			<path style="fill:#FFFFFF;" d="M1790.395,931.879c-30.957,0-24.584,5.72-24.584-22.061
				C1796.767,909.818,1790.395,904.098,1790.395,931.879z"/>
		</g>
		<g>
			<path style="fill:#EEBC3B;" d="M1832.295,899.889c-32.506,0-33.394-0.789-33.394,1.89c0,152.974-1.023,145.929,1.891,145.929
				c32.507,0,33.413,0.799,33.413-1.9C1834.205,892.834,1835.228,899.889,1832.295,899.889z"/>
			<path style="fill:#FFFFFF;" d="M1828.835,931.879c-30.957,0-24.575,5.72-24.575-22.061
				C1835.218,909.818,1828.835,904.098,1828.835,931.879z"/>
		</g>
		<g>
			<path style="fill:#EEBC3B;" d="M1874.448,899.889c-32.506,0-33.403-0.78-33.403,1.89c0,152.974-1.023,145.929,1.88,145.929
				c32.487,0,33.423,0.799,33.423-1.9C1876.348,892.834,1877.352,899.889,1874.448,899.889z"/>
			<path style="fill:#FFFFFF;" d="M1870.979,931.879c-30.957,0-24.584,5.72-24.584-22.061
				C1877.342,909.818,1870.979,904.098,1870.979,931.879z"/>
		</g>
		<g>
			<path style="fill:#EEBC3B;" d="M1912.908,899.889c-32.507,0-33.413-0.78-33.413,1.89c0,152.974-1.023,145.929,1.881,145.929
				c32.506,0,33.412,0.789,33.412-1.9C1914.789,892.834,1915.812,899.889,1912.908,899.889z"/>
			<path style="fill:#FFFFFF;" d="M1909.439,931.879c-30.967,0-24.594,5.72-24.594-22.061
				C1915.812,909.818,1909.439,904.098,1909.439,931.879z"/>
		</g>
		<g>
			<path style="fill:#EEBC3B;" d="M1951.349,899.889c-32.507,0-33.413-0.78-33.413,1.89c0,153.003-1.004,145.929,1.89,145.929
				c32.506,0,33.413,0.789,33.413-1.9C1953.24,892.834,1954.262,899.889,1951.349,899.889z"/>
			<path style="fill:#FFFFFF;" d="M1947.89,931.879c-30.957,0-24.594,5.72-24.594-22.061
				C1954.262,909.818,1947.89,904.098,1947.89,931.879z"/>
		</g>
		<g>
			<path style="fill:#EEBC3B;" d="M1773.206,1313.997c-32.507,0-33.393-0.78-33.393,1.89c0,152.984-1.023,145.929,1.88,145.929
				c32.516,0,33.422,0.779,33.422-1.9C1775.116,1306.942,1776.129,1313.997,1773.206,1313.997z"/>
			<path style="fill:#FFFFFF;" d="M1769.756,1345.977c-30.967,0-24.594,5.73-24.594-22.07
				C1776.129,1323.907,1769.756,1318.197,1769.756,1345.977z"/>
		</g>
		<g>
			<path style="fill:#EEBC3B;" d="M1811.657,1313.997c-32.497,0-33.394-0.799-33.394,1.89c0,152.984-1.023,145.929,1.881,145.929
				c32.506,0,33.413,0.799,33.413-1.9C1813.557,1306.942,1814.57,1313.997,1811.657,1313.997z"/>
			<path style="fill:#FFFFFF;" d="M1808.197,1345.977c-30.957,0-24.584,5.73-24.584-22.07
				C1814.58,1323.907,1808.197,1318.197,1808.197,1345.977z"/>
		</g>
		<path style="fill:#A97C50;" d="M1706.37,730.652c-23.542,0-32.906-2.29-32.906,6.568c0,1091.046-3.663,1031.431,6.588,1031.431
			c23.483,0,32.896,2.3,32.896-6.577C1712.948,671.651,1716.602,730.652,1706.37,730.652z"/>
		<path style="fill:#A97C50;" d="M2081.522,730.652c-23.406,0-32.916-2.29-32.916,6.568c0,1091.007-3.664,1031.431,6.597,1031.431
			c23.473,0,32.896,2.3,32.896-6.577C2088.099,671.651,2091.753,730.652,2081.522,730.652z"/>
	</g>
	<g>
		<path style="fill:#D1D3D4;" d="M1962.662,1579.438h-164.559c-3.031,0-5.486,2.456-5.486,5.486v119.99
			c0,3.03,2.455,5.486,5.486,5.486h164.559c3.031,0,5.487-2.456,5.487-5.486v-119.99
			C1968.148,1581.894,1965.693,1579.438,1962.662,1579.438z"/>
		<path style="fill:#939598;" d="M1962.662,1573.953h-164.559c-3.031,0-5.486,2.455-5.486,5.486v119.99
			c0,3.031,2.455,5.486,5.486,5.486h164.559c3.031,0,5.487-2.456,5.487-5.486v-119.99
			C1968.148,1576.408,1965.693,1573.953,1962.662,1573.953z"/>
		<path style="fill:#D1D3D4;" d="M1962.662,1567.102h-164.559c-3.031,0-5.486,2.456-5.486,5.486v119.99
			c0,3.021,2.455,5.476,5.486,5.476h164.559c3.031,0,5.487-2.456,5.487-5.476v-119.99
			C1968.148,1569.558,1965.693,1567.102,1962.662,1567.102z"/>
		<path style="fill:#BCBEC0;" d="M1962.662,1557.504h-164.559c-3.031,0-5.486,2.456-5.486,5.486v119.98
			c0,3.03,2.455,5.486,5.486,5.486h164.559c3.031,0,5.487-2.456,5.487-5.486v-119.98
			C1968.148,1559.96,1965.693,1557.504,1962.662,1557.504z"/>
		<g>
			<rect x="1808.685" y="1593.499" style="fill:#FFFFFF;" width="15.172" height="15.172"/>
			<rect x="1834.058" y="1593.499" style="fill:#FFFFFF;" width="15.172" height="15.172"/>
			<rect x="1808.685" y="1615.394" style="fill:#FFFFFF;" width="15.172" height="15.172"/>
			<rect x="1834.058" y="1615.394" style="fill:#FFFFFF;" width="15.172" height="15.172"/>
			<rect x="1859.773" y="1615.394" style="fill:#F04F65;" width="15.172" height="15.172"/>
			<rect x="1885.478" y="1615.394" style="fill:#FFFFFF;" width="15.172" height="15.172"/>
			<rect x="1911.193" y="1615.394" style="fill:#FFFFFF;" width="15.172" height="15.172"/>
			<rect x="1936.908" y="1615.394" style="fill:#FFFFFF;" width="15.172" height="15.172"/>
			<rect x="1808.685" y="1640.076" style="fill:#FFFFFF;" width="15.172" height="15.172"/>
			<rect x="1834.058" y="1640.076" style="fill:#FFFFFF;" width="15.172" height="15.172"/>
			<rect x="1859.773" y="1640.076" style="fill:#FFFFFF;" width="15.172" height="15.172"/>
			<rect x="1885.478" y="1640.076" style="fill:#FFFFFF;" width="15.172" height="15.172"/>
			<rect x="1911.193" y="1640.076" style="fill:#FFFFFF;" width="15.172" height="15.172"/>
			<rect x="1936.908" y="1640.076" style="fill:#FFFFFF;" width="15.172" height="15.172"/>
			<rect x="1808.685" y="1664.758" style="fill:#FFFFFF;" width="15.172" height="15.172"/>
			<rect x="1834.058" y="1664.758" style="fill:#FFFFFF;" width="15.172" height="15.172"/>
			<rect x="1859.773" y="1664.758" style="fill:#FFFFFF;" width="15.172" height="15.172"/>
			<rect x="1885.478" y="1664.758" style="fill:#FFFFFF;" width="15.172" height="15.172"/>
			<rect x="1911.193" y="1664.758" style="fill:#FFFFFF;" width="15.172" height="15.172"/>
			<rect x="1936.908" y="1664.758" style="fill:#FFFFFF;" width="15.172" height="15.172"/>
		</g>
		<path style="fill:#F7ADC1;" d="M1968.148,1582.186v-19.196c0-3.03-2.456-5.486-5.487-5.486h-164.559
			c-3.031,0-5.486,2.456-5.486,5.486v19.196H1968.148z"/>
		<g>
			<path style="fill:#FFFFFF;" d="M1822.278,1569.84c0,2.933-2.387,5.32-5.32,5.32c-2.933,0-5.311-2.387-5.311-5.32
				c0-2.933,2.378-5.31,5.311-5.31C1819.891,1564.53,1822.278,1566.907,1822.278,1569.84z"/>
			<path style="fill:#FFFFFF;" d="M1847.642,1569.84c0,2.933-2.378,5.32-5.311,5.32c-2.933,0-5.32-2.387-5.32-5.32
				c0-2.933,2.387-5.31,5.32-5.31C1845.264,1564.53,1847.642,1566.907,1847.642,1569.84z"/>
			<path style="fill:#FFFFFF;" d="M1873.016,1569.84c0,2.933-2.378,5.32-5.32,5.32c-2.933,0-5.311-2.387-5.311-5.32
				c0-2.933,2.378-5.31,5.311-5.31C1870.638,1564.53,1873.016,1566.907,1873.016,1569.84z"/>
			<path style="fill:#FFFFFF;" d="M1898.38,1569.84c0,2.933-2.378,5.32-5.311,5.32c-2.933,0-5.32-2.387-5.32-5.32
				c0-2.933,2.387-5.31,5.32-5.31C1896.002,1564.53,1898.38,1566.907,1898.38,1569.84z"/>
			<path style="fill:#FFFFFF;" d="M1923.754,1569.84c0,2.933-2.377,5.32-5.32,5.32c-2.933,0-5.31-2.387-5.31-5.32
				c0-2.933,2.377-5.31,5.31-5.31C1921.376,1564.53,1923.754,1566.907,1923.754,1569.84z"/>
			<path style="fill:#FFFFFF;" d="M1949.118,1569.84c0,2.933-2.378,5.32-5.311,5.32c-2.933,0-5.32-2.387-5.32-5.32
				c0-2.933,2.388-5.31,5.32-5.31C1946.74,1564.53,1949.118,1566.907,1949.118,1569.84z"/>
		</g>
		<g>
			<path style="fill:#94459A;" d="M1820.387,1566.41c0,1.9-1.53,3.43-3.43,3.43l0,0c-1.89,0-3.43-1.53-3.43-3.43v-7.366
				c0-1.89,1.54-3.43,3.43-3.43l0,0c1.9,0,3.43,1.54,3.43,3.43V1566.41z"/>
			<path style="fill:#94459A;" d="M1845.761,1566.41c0,1.9-1.54,3.43-3.43,3.43l0,0c-1.9,0-3.43-1.53-3.43-3.43v-7.366
				c0-1.89,1.53-3.43,3.43-3.43l0,0c1.89,0,3.43,1.54,3.43,3.43V1566.41z"/>
			<path style="fill:#94459A;" d="M1871.125,1566.41c0,1.9-1.53,3.43-3.43,3.43l0,0c-1.89,0-3.43-1.53-3.43-3.43v-7.366
				c0-1.89,1.54-3.43,3.43-3.43l0,0c1.9,0,3.43,1.54,3.43,3.43V1566.41z"/>
			<path style="fill:#94459A;" d="M1896.499,1566.41c0,1.9-1.54,3.43-3.43,3.43l0,0c-1.9,0-3.43-1.53-3.43-3.43v-7.366
				c0-1.89,1.53-3.43,3.43-3.43l0,0c1.89,0,3.43,1.54,3.43,3.43V1566.41z"/>
			<path style="fill:#94459A;" d="M1921.863,1566.41c0,1.9-1.53,3.43-3.43,3.43l0,0c-1.89,0-3.43-1.53-3.43-3.43v-7.366
				c0-1.89,1.54-3.43,3.43-3.43l0,0c1.9,0,3.43,1.54,3.43,3.43V1566.41z"/>
			<path style="fill:#94459A;" d="M1947.237,1566.41c0,1.9-1.539,3.43-3.43,3.43l0,0c-1.9,0-3.43-1.53-3.43-3.43v-7.366
				c0-1.89,1.53-3.43,3.43-3.43l0,0c1.891,0,3.43,1.54,3.43,3.43V1566.41z"/>
		</g>
	</g>
	<g>
		<g>
			<rect x="41.296" y="748.231" style="fill:#C49A6C;" width="478.205" height="1023.938"/>
			<rect x="63.658" y="775.661" style="fill:#8B5E3C;" width="433.479" height="251.449"/>
			<rect x="63.658" y="1092.064" style="fill:#8B5E3C;" width="433.479" height="251.439"/>
			<rect x="63.658" y="1408.457" style="fill:#8B5E3C;" width="433.479" height="251.438"/>
			<rect x="63.658" y="1674.473" style="fill:#754C29;" width="433.479" height="87.678"/>
		</g>
		<g>
			<g>
				<rect x="85.739" y="836.864" style="fill:#8DC63F;" width="49.871" height="190.245"/>
				<rect x="97.052" y="836.864" style="fill:#FFFFFF;" width="27.255" height="173.271"/>
			</g>
			<g>
				<rect x="120.974" y="836.864" style="fill:#BCBEC0;" width="1.55" height="180.082"/>
			</g>
			<g>
				<rect x="115.566" y="836.864" style="fill:#BCBEC0;" width="1.54" height="180.082"/>
			</g>
			<g>
				<rect x="110.157" y="836.864" style="fill:#BCBEC0;" width="1.54" height="180.082"/>
			</g>
			<g>
				<rect x="104.73" y="836.864" style="fill:#BCBEC0;" width="1.55" height="180.082"/>
			</g>
			<g>
				<rect x="99.322" y="836.864" style="fill:#BCBEC0;" width="1.54" height="180.082"/>
			</g>
			<polygon style="fill:#F2676D;" points="124.306,836.864 135.609,836.864 135.609,1027.109 85.739,1027.109 85.739,836.864 
				97.052,836.864 97.052,1010.135 124.306,1010.135 			"/>
		</g>
		<g>
			<g>
				<polygon style="fill:#8DC63F;" points="134.06,840.606 171.721,1027.07 220.608,1017.2 182.947,830.725 				"/>
				<polygon style="fill:#FFFFFF;" points="145.149,838.364 171.858,832.976 206.157,1002.807 179.449,1008.205 				"/>
			</g>
			<g>
				<polygon style="fill:#BCBEC0;" points="168.603,833.629 204.247,1010.135 205.758,1009.833 170.123,833.317 				"/>
			</g>
			<g>
				
					<rect x="181.11" y="832.758" transform="matrix(0.9802 -0.1979 0.1979 0.9802 -179.0484 54.2535)" style="fill:#BCBEC0;" width="1.531" height="180.088"/>
			</g>
			<g>
				<polygon style="fill:#BCBEC0;" points="157.982,835.763 193.626,1012.298 195.146,1011.977 159.492,835.471 				"/>
			</g>
			<g>
				<polygon style="fill:#BCBEC0;" points="152.681,836.844 188.325,1013.36 189.836,1013.048 154.192,836.542 				"/>
			</g>
			<g>
				<polygon style="fill:#BCBEC0;" points="147.371,837.916 183.025,1014.432 184.535,1014.13 148.881,837.614 				"/>
			</g>
			<polygon style="fill:#356C99;" points="171.858,832.976 182.947,830.725 220.608,1017.2 171.721,1027.07 134.06,840.606 
				145.149,838.364 179.449,1008.205 206.157,1002.807 			"/>
		</g>
		<g>
			<path style="fill:#EEBC3B;" d="M411.379,1121.705h47.288c1.569,0,2.845,1.267,2.845,2.836v216.116
				c0,1.578-1.276,2.845-2.845,2.845h-47.288c-1.569,0-2.836-1.267-2.836-2.845v-216.116
				C408.544,1122.972,409.81,1121.705,411.379,1121.705z"/>
			<rect x="416.583" y="1136.595" style="fill:#FFFFFF;" width="36.881" height="33.101"/>
		</g>
		<g>
			<path style="fill:#EEBC3B;" d="M353.684,1121.705h47.279c1.578,0,2.845,1.267,2.845,2.836v216.116
				c0,1.578-1.267,2.845-2.845,2.845h-47.279c-1.569,0-2.826-1.267-2.826-2.845v-216.116
				C350.858,1122.972,352.115,1121.705,353.684,1121.705z"/>
			<rect x="358.887" y="1136.595" style="fill:#FFFFFF;" width="36.882" height="33.101"/>
		</g>
		<g>
			<path style="fill:#FFFFFF;" d="M220.364,1159.114l50.562,168.32c0.419,1.384-0.36,2.846-1.754,3.264l-43.859,13.165
				c-1.384,0.429-2.845-0.361-3.255-1.754l-50.562-168.312L220.364,1159.114z"/>
			<path style="fill:#71566F;" d="M172.501,1168.03l6.685-2.017l49.812,165.817l30.061-9.023l-49.802-165.816l7.103-2.134
				c1.374-0.419,2.836,0.371,3.255,1.764l51.313,170.815c0.419,1.384-0.36,2.846-1.754,3.264l-43.859,13.165
				c-1.384,0.429-2.845-0.361-3.255-1.754l-51.313-170.826C170.328,1169.9,171.117,1168.449,172.501,1168.03z"/>
			<path style="fill:#71566F;" d="M172.501,1168.03l3.761-1.13l51.81,172.491l36.336-10.903l-51.81-172.501l3.761-1.13
				c1.374-0.419,2.836,0.371,3.255,1.764l51.313,170.815c0.419,1.384-0.36,2.846-1.754,3.264l-43.859,13.165
				c-1.384,0.429-2.845-0.361-3.255-1.754l-51.313-170.826C170.328,1169.9,171.117,1168.449,172.501,1168.03z"/>
		</g>
		<g>
			<path style="fill:#FFFFFF;" d="M166.859,1159.114l50.562,168.32c0.419,1.384-0.37,2.846-1.754,3.264l-43.849,13.165
				c-1.383,0.429-2.845-0.361-3.264-1.754l-50.563-168.312L166.859,1159.114z"/>
			<path style="fill:#526D75;" d="M118.995,1168.03l6.675-2.017l49.812,165.817l30.08-9.023l-49.812-165.816l7.103-2.134
				c1.374-0.419,2.836,0.371,3.255,1.764l51.313,170.815c0.419,1.384-0.37,2.846-1.754,3.264l-43.849,13.165
				c-1.383,0.429-2.845-0.361-3.264-1.754l-51.313-170.826C116.823,1169.9,117.612,1168.439,118.995,1168.03z"/>
			<path style="fill:#526D75;" d="M118.995,1168.03l3.752-1.13l51.819,172.491l36.336-10.903l-51.819-172.501l3.771-1.13
				c1.374-0.419,2.836,0.371,3.255,1.764l51.313,170.815c0.419,1.384-0.37,2.846-1.754,3.264l-43.849,13.165
				c-1.383,0.429-2.845-0.361-3.264-1.754l-51.313-170.826C116.823,1169.9,117.612,1168.439,118.995,1168.03z"/>
		</g>
		<g>
			<path style="fill:#FFFFFF;" d="M113.402,1159.318l50.563,168.321c0.409,1.393-0.38,2.845-1.754,3.254l-43.858,13.174
				c-1.383,0.429-2.845-0.36-3.264-1.754l-50.553-168.321L113.402,1159.318z"/>
			<path style="fill:#A08BC1;" d="M65.529,1168.234l6.685-2.017l49.812,165.817l30.061-9.033l-49.802-165.807l7.103-2.144
				c1.384-0.409,2.846,0.38,3.255,1.764l51.323,170.825c0.409,1.393-0.38,2.845-1.754,3.254l-43.858,13.174
				c-1.383,0.429-2.845-0.36-3.264-1.754l-51.312-170.826C63.356,1170.105,64.146,1168.643,65.529,1168.234z"/>
			<path style="fill:#A08BC1;" d="M65.529,1168.234l3.761-1.13l51.819,172.491l36.327-10.914l-51.819-172.491l3.771-1.14
				c1.384-0.409,2.846,0.38,3.255,1.764l51.323,170.825c0.409,1.393-0.38,2.845-1.754,3.254l-43.858,13.174
				c-1.383,0.429-2.845-0.36-3.264-1.754l-51.312-170.826C63.356,1170.105,64.146,1168.643,65.529,1168.234z"/>
		</g>
		<g>
			<path style="fill:#2EAAE1;" d="M124.667,1438.46c-48.438,0-49.744-1.189-49.744,2.816c0,227.4-1.559,217.325,2.797,217.325
				c48.409,0,49.773,1.169,49.773-2.836C127.492,1427.945,128.993,1438.46,124.667,1438.46z"/>
			<path style="fill:#FFFFFF;" d="M82.883,1462.274c-0.009,6.08-0.019,12.005-0.029,17.705h37.194
				c-0.253-7.854-0.711-13.574-1.472-17.705H82.883z"/>
			<path style="fill:#FFFFFF;" d="M119.502,1638.615c0.039-70.392,0.906-114.767,0.799-142.402H82.796
				c-0.419,91.313-1.988,128.409,1.442,142.402H119.502z"/>
		</g>
		<g>
			<path style="fill:#2EAAE1;" d="M181.923,1438.46c-48.428,0-49.763-1.169-49.763,2.816c0,227.858-1.501,217.325,2.826,217.325
				c48.409,0,49.764,1.169,49.764-2.836C184.749,1427.945,186.25,1438.46,181.923,1438.46z"/>
			<path style="fill:#FFFFFF;" d="M140.16,1462.274c-0.01,6.08-0.02,12.005-0.03,17.705h37.184
				c-0.253-7.854-0.712-13.574-1.471-17.705H140.16z"/>
			<path style="fill:#FFFFFF;" d="M176.769,1638.615c0.039-70.392,0.906-114.767,0.799-142.402h-37.496
				c-0.419,91.313-1.978,128.409,1.442,142.402H176.769z"/>
		</g>
		<g>
			<path style="fill:#2EAAE1;" d="M239.18,1438.46c-48.419,0-49.744-1.189-49.744,2.816c0,227.819-1.511,217.325,2.816,217.325
				c48.419,0,49.754,1.188,49.754-2.836C242.006,1427.945,243.546,1438.46,239.18,1438.46z"/>
			<path style="fill:#FFFFFF;" d="M197.426,1462.274c-0.009,6.08-0.009,12.005-0.029,17.705h37.164
				c-0.243-7.854-0.701-13.574-1.462-17.705H197.426z"/>
			<path style="fill:#FFFFFF;" d="M234.016,1638.615c0.039-70.392,0.906-114.767,0.799-142.402h-37.477
				c-0.419,91.313-1.978,128.409,1.442,142.402H234.016z"/>
		</g>
		<g>
			<path style="fill:#2EAAE1;" d="M301.952,1438.46c-48.419,0-49.754-1.169-49.754,2.816c0,227.819-1.52,217.325,2.806,217.325
				c48.37,0,49.763,1.188,49.763-2.836C304.768,1427.945,306.269,1438.46,301.952,1438.46z"/>
			<path style="fill:#FFFFFF;" d="M260.169,1462.274c-0.01,6.08-0.02,12.005-0.029,17.705h37.184
				c-0.253-7.854-0.711-13.574-1.472-17.705H260.169z"/>
			<path style="fill:#FFFFFF;" d="M296.778,1638.615c0.039-70.392,0.906-114.767,0.799-142.402h-37.496
				c-0.419,91.313-1.978,128.409,1.452,142.402H296.778z"/>
		</g>
		<g>
			<path style="fill:#2EAAE1;" d="M359.219,1438.46c-48.419,0-49.763-1.169-49.763,2.816c0,227.819-1.51,217.325,2.826,217.325
				c48.4,0,49.754,1.169,49.754-2.836C362.035,1427.945,363.535,1438.46,359.219,1438.46z"/>
			<path style="fill:#FFFFFF;" d="M354.055,1638.615c0.02-70.392,0.906-114.767,0.789-142.402h-37.505
				c-0.419,91.313-1.978,128.409,1.442,142.402H354.055z"/>
			<path style="fill:#FFFFFF;" d="M317.426,1462.274c-0.01,6.08-0.02,12.005-0.03,17.705h37.194
				c-0.244-7.854-0.701-13.574-1.471-17.705H317.426z"/>
		</g>
		<g>
			<path style="fill:#2EAAE1;" d="M416.466,1438.46c-48.419,0-49.754-1.169-49.754,2.816c0,227.858-1.511,217.325,2.816,217.325
				c48.409,0,49.773,1.169,49.773-2.836C419.301,1427.945,420.802,1438.46,416.466,1438.46z"/>
			<path style="fill:#FFFFFF;" d="M374.693,1462.274c-0.01,6.08-0.01,12.005-0.029,17.705h37.203
				c-0.253-7.854-0.711-13.574-1.471-17.705H374.693z"/>
			<path style="fill:#FFFFFF;" d="M411.321,1638.615c0.029-70.392,0.906-114.767,0.789-142.402h-37.505
				c-0.419,91.313-1.978,128.409,1.442,142.402H411.321z"/>
		</g>
		<g>
			<path style="fill:#2EAAE1;" d="M476.929,1438.46c-48.419,0-49.754-1.169-49.754,2.816c0,227.858-1.51,217.325,2.816,217.325
				c48.409,0,49.773,1.169,49.773-2.836C479.764,1427.945,481.275,1438.46,476.929,1438.46z"/>
			<path style="fill:#FFFFFF;" d="M435.155,1462.274c0,6.08-0.009,12.005-0.029,17.705h37.203
				c-0.253-7.854-0.711-13.574-1.471-17.705H435.155z"/>
			<path style="fill:#FFFFFF;" d="M471.783,1638.615c0.029-70.392,0.907-114.767,0.789-142.402h-37.505
				c-0.409,91.313-1.978,128.409,1.442,142.402H471.783z"/>
		</g>
	</g>
	<g>
		<g>
			<g>
				<g>
					<g>
						<path style="fill:#8DC63F;" d="M241.207,533.557c0.78,3.42,2.466,6.246,4.112,9.306c2.582,4.755,4.404,10.036,6.285,15.103
							c3.81,10.183,6.197,20.775,8.039,31.484c3.752,21.924,3.917,44.306,3.44,66.475c-0.068,2.602,3.956,2.602,4.015,0
							c0.478-20.94,0.097-41.822-2.806-62.606c-1.501-10.748-3.81-21.379-7.162-31.718c-1.579-4.911-3.469-9.763-5.535-14.49
							c-2.046-4.755-5.349-9.598-6.509-14.616C244.51,529.951,240.622,531.033,241.207,533.557L241.207,533.557z"/>
					</g>
				</g>
				<path style="fill:#F04F65;" d="M249.928,500.261c-1.179-1.53-3.313-0.117-3.42,1.423c-0.234,2.962-0.936,9.442-5.408,8.127
					c-2.222-0.643-4.355-1.871-6.353-3.04c-1.189-0.711-3.225,0.176-3.021,1.744c0.322,2.572-0.204,5.009-1.939,7.084
					c-1.813,2.144-6.675-0.857-8.858-2.329c-0.146-0.156-0.322-0.263-0.507-0.351c-0.984-0.672-1.939-0.292-2.484,0.448
					c-0.302,0.321-0.507,0.75-0.546,1.296c-0.799,15.065,13.213,36.404,30.538,26.826C263.171,533.06,259.204,512.1,249.928,500.261
					z"/>
			</g>
			<g>
				<g>
					<g>
						<path style="fill:#8DC63F;" d="M302.459,533.557c-0.78,3.42-2.475,6.246-4.132,9.306c-2.562,4.755-4.385,10.036-6.265,15.103
							c-3.81,10.183-6.207,20.775-8.049,31.484c-3.761,21.924-3.917,44.306-3.421,66.475c0.059,2.602-3.975,2.602-4.034,0
							c-0.478-20.94-0.098-41.822,2.816-62.606c1.501-10.748,3.81-21.379,7.152-31.718c1.598-4.911,3.479-9.763,5.535-14.49
							c2.056-4.755,5.349-9.598,6.509-14.616C299.155,529.951,303.034,531.033,302.459,533.557L302.459,533.557z"/>
					</g>
				</g>
				<path style="fill:#F04F65;" d="M293.719,500.261c1.179-1.53,3.323-0.117,3.44,1.423c0.214,2.962,0.916,9.442,5.398,8.127
					c2.222-0.643,4.365-1.871,6.344-3.04c1.198-0.711,3.235,0.176,3.03,1.744c-0.331,2.572,0.195,5.009,1.939,7.084
					c1.802,2.144,6.694-0.857,8.857-2.329c0.156-0.156,0.321-0.263,0.516-0.351c0.984-0.672,1.939-0.292,2.465,0.448
					c0.312,0.321,0.526,0.75,0.546,1.296c0.799,15.065-13.193,36.404-30.538,26.826C280.476,533.06,284.461,512.1,293.719,500.261z"
					/>
			</g>
			<g>
				<g>
					<g>
						<path style="fill:#8DC63F;" d="M270.245,590.17c1.842,9.423,4.044,18.719,6.5,27.956h5.992
							c-3.177-11.761-5.846-23.64-7.805-35.674c-2.612-15.99-4.375-32.087-3.966-48.312c0.205-8.058,0.233-16.38,1.54-24.341
							c0.838-5.125,1.851-9.939,1.296-15.123c-0.409-3.849-6.402-3.488-6.002,0.37c0.828,7.649-1.491,16.078-2.095,23.776
							c-0.595,7.679-0.906,15.435-0.76,23.133C265.246,558.161,267.146,574.278,270.245,590.17z"/>
					</g>
				</g>
				<path style="fill:#F04F65;" d="M245.299,451.94c0.945-2.728,4.648-1.774,5.545,0.331c1.754,4.092,5.895,12.892,11.576,8.858
					c2.806-1.978,5.252-4.756,7.464-7.367c1.335-1.578,4.648-1.325,5.125,0.974c0.789,3.81,2.709,6.987,6.168,9.062
					c3.576,2.144,9.004-4.453,11.371-7.591c0.137-0.282,0.331-0.526,0.546-0.74c1.062-1.423,2.592-1.355,3.722-0.555
					c0.585,0.302,1.072,0.799,1.394,1.549c8.428,20.863-0.955,57.773-30.061,52.668C242.571,504.636,238.011,473.143,245.299,451.94
					z"/>
			</g>
		</g>
		<g>
			<path style="fill:#FBDF60;" d="M252.725,748.786c0,0.058,0.019,0.127,0.019,0.185h35.849c0.009-0.058,0.029-0.127,0.029-0.185
				c0.341-13.681,8.565-24.117,14.382-35.937c5.769-11.79,6.879-25.023,6.139-37.963c-0.721-12.57-4.697-23.678-10.154-34.875
				c-5.573-11.478-12.725-23.98-7.883-36.921c1.384-3.751-2.183-7.649-5.837-7.649h-29.193c-1.627,0-2.894,0.546-3.83,1.374
				c-1.939,1.218-3.06,3.421-1.998,6.275c4.58,12.258-1.617,24.117-6.987,35.069c-5.525,11.245-9.491,21.856-10.865,34.407
				c-1.393,12.717-0.234,26.68,5.086,38.402C243.224,723.558,252.364,734.394,252.725,748.786z"/>
		</g>
	</g>
	<g>
		<path style="fill:#59B3B4;" d="M1324.808,776.725h-276.438H786.842c-60.989,0-110.411,59.289-110.411,132.433v614.991h371.94
			h386.844V909.158C1435.215,836.014,1385.773,776.725,1324.808,776.725z"/>
		<path style="fill:#4299AD;" d="M678.467,1653.265c0,22.767-60.925,39.788-82.703,39.788l0,0c-21.774,0,4.01-32.558,4.01-55.313
			l-111.449-414.585c0-22.757,37.369-73.342,59.147-73.342l55.206-12.358c13.506-6.546,68.521,0,75.79,42.297V1653.265z"/>
		<path style="fill:#4299AD;" d="M1435.215,1653.265c0,22.767,60.93,39.788,82.689,39.788l0,0c21.773,0-4.005-32.558-4.005-55.313
			l111.444-414.585c0-22.757-37.374-73.342-59.147-73.342l-55.21-12.358c-13.496-6.546-68.507,0-75.771,42.297V1653.265z"/>
		<path style="fill:#2B214C;" d="M592.124,1774.088c0,21.912-15.8,39.698-35.293,39.698l0,0c-19.498,0-35.293-17.785-35.293-39.698
			v-63.064c0-21.949,15.795-39.732,35.293-39.732l0,0c19.493,0,35.293,17.783,35.293,39.732V1774.088z"/>
		<path style="fill:#59B3B4;" d="M639.193,1720.366v-469.489c0-55.481-35.63-100.426-79.576-100.426
			c-43.971,0-79.6,44.945-79.6,100.426v469.489H639.193z"/>
		<path style="fill:#41B1CF;" d="M1324.808,828.106h-276.438H786.842c-60.989,0-110.411,59.276-110.411,132.416v615.011h371.94
			h386.844V960.522C1435.215,887.382,1385.773,828.106,1324.808,828.106z"/>
		<polygon style="fill:#398CAA;" points="1510.986,1455.258 1435.215,1345.43 1069.944,1347.753 718.774,1345.43 642.984,1455.258 
			639.193,1695.835 1069.944,1705.762 1514.8,1695.835 		"/>
		<path style="fill:#2B214C;" d="M1561.865,1774.088c0,21.912,15.8,39.698,35.298,39.698l0,0c19.498,0,35.293-17.785,35.293-39.698
			v-63.064c0-21.949-15.795-39.732-35.293-39.732l0,0c-19.498,0-35.298,17.783-35.298,39.732V1774.088z"/>
		<path style="fill:#59B3B4;" d="M1514.8,1720.366v-469.489c0-55.481,35.625-100.426,79.581-100.426
			c43.951,0,79.576,44.945,79.576,100.426v469.489H1514.8z"/>
		<path style="fill:#50ADB1;" d="M1516.145,1635.784v-106.818c0-46.716,7.313-84.58-47.347-84.58h-398.853H685.176
			c-54.636,0-47.328,37.864-47.328,84.58v106.818c0,46.701-10.431,84.582,47.328,84.582h384.768h398.853
			C1526.557,1720.366,1516.145,1682.485,1516.145,1635.784z"/>
	</g>
</g>
<g>
	<g>
		<path style="fill:#F6884F;" d="M641.001,1625.928c-25.047,8.253-60.151,55.069-70.251,74.913
			c-14.251,28.056-21.934,47.808-23.668,81.164c-0.804,15.403,0.575,29.001,6.168,35.498c0.886-2.567,9.71-16.952,10.29-19.335
			c-0.721,22.326,16.434,67.751,38.012,82.862c-0.151-1.613,4.239-13.593,4.195-13.764c9.208,23.998,33.291,30.324,61.213,48.093
			c19.854,12.628,73.681,30.221,82.368,33.963l21.062-20.884c-36.58-23.715-76.945-63.308-97.286-100.597
			c-18.393-33.693-33.116-73.083-37.574-111.454c-2.738-23.469-1.087-61.238,7.868-89.671"/>
		<g>
			<path style="fill:#EFC996;" d="M909.107,1777.786c57.442,81.829,26.68,183.566,6.646,215.926
				c-7.503,12.141,26.387,14.002,24.068,49.676c-25.535,2.197-39.123,1.369-62.855,0c-25.291-14.314-104.833-144.852-94.821-234.206
				L909.107,1777.786z"/>
			
				<path style="fill:none;stroke:#DDB588;stroke-width:4.4192;stroke-linecap:round;stroke-linejoin:round;stroke-miterlimit:10;" d="
				M933.77,2040.589c1.018-5.625-3.805-13.603-7.776-16.682"/>
			
				<path style="fill:none;stroke:#DDB588;stroke-width:4.4192;stroke-linecap:round;stroke-linejoin:round;stroke-miterlimit:10;" d="
				M920.897,2041.592c1.033-5.63-3.8-13.59-7.766-16.699"/>
		</g>
		<path style="fill:#E17D49;" d="M1252.769,1801.362c31.191,26.182,85.7,101.076,152.54,141.753
			c29.74,18.122,136.516,13.257,128.467,50.597c0.434,12.953-27.79,12.148-51.932,11.822c-29.978,0.45-54.353,0.777-94.28,0.282
			c-97.754-1.235-112.93,0.251-179.936-52.428L1252.769,1801.362z"/>
		<path style="fill:#FFDCA6;" d="M1405.31,1943.115c-2.382-1.45-4.716-3.026-7.064-4.56c-11.659,11.954-20.497,42.397-14.626,67.203
			c1.315,0.01,2.602,0.015,3.946,0.058c39.927,0.495,64.302,0.168,94.28-0.282c24.141,0.326,52.365,1.13,51.932-11.822
			C1541.826,1956.372,1435.049,1961.237,1405.31,1943.115z"/>
		<path style="fill:#F6884F;" d="M1361.529,1717.079c10.344,21.111,13.228,44.424,15.65,59.871
			c4.75,30.214,20.375,166.185-64.536,220.766c-100.915,64.838-248.257,68.613-358.512,44.302
			c-109.072-13.352-189.802-18.974-234.372-87.293c-18.28-36.312-24.126-91.111,0.638-143.14
			c16.507-34.765,44.458-55.554,76.516-66.326c18.417-6.185,38.139-9.081,57.841-9.413c46.655-0.848,229.003,37.22,293.616,25.451
			c4.107-0.74,7.732-1.661,10.831-2.84c41.608-15.688,44.034-35.69,65.51-59.99
			C1252.277,1667.333,1345.003,1683.321,1361.529,1717.079z"/>
		<path style="fill:#FFDCA6;" d="M1224.716,1698.497c-17.997,20.344-48.375,48.014-73.924,62.353
			c22.543,43.997,72.95,78.1,123.829,93.661c20.024,6.127,44.117,15.825,66.333,21.491c7.956,2.017,26.168,7.075,36.828,7.325
			c5.281-43.052,4.502-88.114,2.203-102.745c-2.422-15.427-8.117-42.407-18.456-63.515
			C1344.993,1683.301,1252.253,1667.316,1224.716,1698.497z"/>
		<path style="fill:#F6884F;" d="M1192.429,1851.335c34.87,23.064,90.845,92.341,157.7,133.042
			c29.73,18.102,136.501,13.235,128.448,50.587c0.438,12.936-27.771,12.158-51.922,11.823c-29.977,0.455-54.358,0.76-94.279,0.275
			c-97.763-1.22-112.94,0.241-179.946-52.419L1192.429,1851.335z"/>
		<path style="fill:#FFDCA6;" d="M1350.129,1984.377c-2.387-1.459-4.726-3.04-7.064-4.577
			c-11.674,11.944-20.507,42.395-14.641,67.198c1.316,0.03,2.592,0.042,3.951,0.063c39.922,0.485,64.302,0.181,94.279-0.275
			c24.151,0.336,52.361,1.113,51.922-11.823C1486.63,1997.612,1379.858,2002.479,1350.129,1984.377z"/>
		
			<path style="fill:none;stroke:#DDB588;stroke-width:4.4192;stroke-linecap:round;stroke-linejoin:round;stroke-miterlimit:10;" d="
			M1466.922,2042.082c-0.214-5.689-5.369-11.035-10.319-12.519"/>
		
			<path style="fill:none;stroke:#DDB588;stroke-width:4.4192;stroke-linecap:round;stroke-linejoin:round;stroke-miterlimit:10;" d="
			M1475.965,2035.816c-0.204-5.681-5.364-11.038-10.309-12.516"/>
		
			<path style="fill:none;stroke:#DDB588;stroke-width:4.4192;stroke-linecap:round;stroke-linejoin:round;stroke-miterlimit:10;" d="
			M1523.468,2001.171c-0.219-5.695-5.369-11.03-10.319-12.511"/>
		
			<path style="fill:none;stroke:#DDB588;stroke-width:4.4192;stroke-linecap:round;stroke-linejoin:round;stroke-miterlimit:10;" d="
			M1531.214,1993.831c-0.2-5.693-5.355-11.026-10.305-12.519"/>
		<g>
			<path style="fill:#63A6B5;" d="M1349.9,1816.424c-13.924,6.244-29.145,9.644-44.273,12.178
				c-22.339,3.757-46.884,2.424-67.566-7.78c-18.485-9.147-37.574-26.3-46.099-44.865c-5.257-11.437-9.735-23.795-12.989-35.968
				c-1.875-7.013,8.765-6.507,15.791-8.402c0.053-0.002,9.973-4.219,11.839,2.755c8.424,31.556,19.635,44.187,41.617,57.551
				c11.825,7.199,29.817,11.829,44.565,11.63c32.4-0.485,82.105-27.649,91.537-37.625c4.999-5.284,6.684,6.606,6.899,13.875
				c0.219,7.26-2.514,11.321-7.859,15.827C1373.364,1804.02,1362.002,1811.023,1349.9,1816.424z"/>
		</g>
		<g>
			<path style="fill:#E8AB62;" d="M1379.809,1807.978c0.853,3.554-1.652,5.778-5.213,6.633l0,0
				c-3.547,0.855-6.792,0.007-7.654-3.544l-4.897-20.361c-0.853-3.554,1.345-7.118,4.892-7.98l0,0
				c3.552-0.855,7.123,1.338,7.971,4.88L1379.809,1807.978z"/>
			<path style="fill:#E8AB62;" d="M1399.58,1826.195c0.506,11.747-8.604,21.681-20.356,22.185
				c-11.752,0.502-21.681-8.606-22.183-20.353c-0.506-11.749,8.604-21.678,20.351-22.192
				C1389.144,1805.338,1399.073,1814.451,1399.58,1826.195z"/>
			
				<path style="fill:none;stroke:#E7E3DE;stroke-width:3.3305;stroke-linecap:round;stroke-linejoin:round;stroke-miterlimit:10;" d="
				M1385.695,1813.299c3.435,2.085,5.642,5.953,6.83,9.474"/>
		</g>
		<g>
			<g>
				<path style="fill:#F6884F;" d="M1250.134,1677.47c-50.782-13.135-108.823-124.553-99.6-144.35
					c6.047-7.223,47.654,21.067,68.195,34.121c16.131,10.266,34.524,18.005,52.697,24.144c11.937,8.146,8.862,32.01,4.015,48.999
					C1269.978,1659.426,1259.41,1679.862,1250.134,1677.47z"/>
				<path style="fill:#F1CB99;" d="M1263.098,1642.04c-3.771,7.123-8.696,12.382-14.212,13.125
					c-14.899-5.267-31.108-18.68-45.564-34.463c-0.477-0.485-0.945-0.996-1.383-1.506c-24.731-27.471-43.937-61.673-41.754-73.659
					c0-0.148,0.049-0.297,0.112-0.45c0.044-0.519,0.209-0.943,0.419-1.349c5.096-5.678,38.787,18.711,56.589,29.313
					c13.998,8.287,32.541,15.525,46.48,24.027C1273.481,1602.944,1271.132,1626.8,1263.098,1642.04z"/>
				<path style="fill:#E8DFE1;" d="M1263.098,1642.04c-3.771,7.123-8.696,12.382-14.212,13.125
					c-14.899-5.267-31.108-18.68-45.564-34.463c-0.477-0.485-0.945-0.996-1.383-1.506c-24.458-28.317-43.674-62.029-41.754-73.659
					c0-0.148,0.049-0.297,0.112-0.45c0.044-0.519,0.209-0.943,0.419-1.349c0.848,0,16.667,29.364,29.539,44.287
					c8.58,10.083,22.241,22.74,32.73,31.033C1231.893,1626.201,1251.493,1636.154,1263.098,1642.04z"/>
			</g>
			<path style="fill:#F6884F;" d="M1187.898,1743.114c0.712,1.829,1.403,3.683,2.266,5.476
				c15.557,32.548,35.22,51.311,72.487,59.018c24.288,5.048,53.252-3.077,73.681-10.061c31.279-10.723,61.768-28.138,93.427-47.12
				c46.938-28.154,87.82-90.241,81.242-122.665c-13.9-68.438-64.662-38.594-118.815-28.344
				c-63.386-71.144-221.105-11.607-220.901,74.504C1171.333,1689.197,1180.156,1723.749,1187.898,1743.114z"/>
			<path style="fill:#FFDCA6;" d="M1513.051,1626.02c-15.834-72.658-66.713-36.852-120.866-26.602
				c-17.5-19.632-42.207-29.284-68.789-31.198c0.19,0.173,0.375,0.331,0.56,0.495c45.958,5.815,78.202,71.203,76.999,114.942
				c-0.794,28.916-12.955,56.599-33.725,78.546c-12.633,13.369-27.235,28.886-43.81,39.466c4.346-0.638,8.555-2.668,12.911-4.122
				c32.36-10.872,62.411-20.862,93.115-41.356C1511.702,1701.297,1520.71,1661.17,1513.051,1626.02z"/>
			<g>
				
					<path style="fill:none;stroke:#4A403E;stroke-width:7.6186;stroke-linecap:round;stroke-linejoin:round;stroke-miterlimit:10;" d="
					M1357.017,1625.967c-13.778-13.751-35.469,0.667-22.294,18.797"/>
			</g>
			<g>
				
					<path style="fill:none;stroke:#4A403E;stroke-width:4.3778;stroke-linecap:round;stroke-linejoin:round;stroke-miterlimit:10;" d="
					M1464.116,1655.35c21.973,8.007,60.75-12.234,40.322-48.224"/>
			</g>
			<g>
				<path style="fill:#4A403E;" d="M1495.258,1582.062c7.23,11.333,12.18,18.926,10.714,24.855
					c-1.267,5.089-16.175,5.642-22.572,4.828c-14.212-1.832-46.431-22.183-31.742-29.552
					C1466.006,1575.007,1485.134,1566.211,1495.258,1582.062z"/>
				<path style="opacity:0.3;fill:#BEC0C2;" d="M1478.878,1576.668c1.257-0.231,7.386-1.074,7.381,1.791
					c0,2.412-5.408,3.878-7.04,4.375c-2.87,0.855-5.749,1.508-8.77,2.224c-1.988,0.468-6.417,0.073-4.151-2.735
					c1.291-1.579,3.377-2.453,5.32-3.323C1473.919,1577.95,1476.315,1577.158,1478.878,1576.668z"/>
			</g>
			<g>
				<path style="fill:#F6884F;" d="M1188.867,1730.317c-52.35-3.396-130.24-101.924-124.886-123.103
					c4.575-8.233,50.748,11.723,73.384,20.726c17.749,7.067,37.271,11.221,56.273,13.837c13.252,5.761,14.704,29.766,13.116,47.371
					C1204.979,1708.892,1198.431,1730.928,1188.867,1730.317z"/>
				<path style="fill:#F1CB99;" d="M1194.967,1693.089c-2.373,7.693-6.241,13.815-11.513,15.567
					c-15.625-2.407-34.056-12.538-51.216-25.311c-0.575-0.404-1.13-0.823-1.632-1.223c-29.447-22.353-54.733-52.346-54.835-64.521
					c-0.024-0.151-0.005-0.307,0.02-0.458c-0.044-0.512,0.024-0.987,0.161-1.428c3.951-6.516,41.608,11.097,61.091,18.192
					c15.294,5.508,34.884,9.147,50.154,14.884C1197.822,1652.749,1199.971,1676.612,1194.967,1693.089z"/>
				<path style="fill:#E8DFE1;" d="M1194.967,1693.089c-2.373,7.693-6.241,13.815-11.513,15.567
					c-15.625-2.407-34.056-12.538-51.216-25.311c-0.575-0.404-1.13-0.823-1.632-1.223c-29.344-23.25-54.524-52.728-54.835-64.521
					c-0.024-0.151-0.005-0.307,0.02-0.458c-0.044-0.512,0.024-0.987,0.161-1.428c0.848-0.158,21.89,25.717,37.32,37.98
					c10.329,8.305,26.124,18.17,37.978,24.339C1161.33,1683.379,1182.451,1689.482,1194.967,1693.089z"/>
			</g>
		</g>
		<path style="fill:#7C442D;" d="M1154.548,1791.691c-1.101,13.362,3.518,13.722,16.867,23.05
			c15.055,10.519-4.643,25.837,0.317,33.413c12.239,18.721,10.665,17.583,3.547,25.32c-24.926,27.155-93.076,36.792-123.347,59.157
			c-22.923,16.931-67.157-21.203-120.472-9.622c-12.614,2.738-24.979-50.648-70.041-41.773
			c-35.44,6.977-61.768-31.216-69.096-64.974c-4.136-19.069-3.362-48.733,4.59-71.001c18.417-6.185,38.139-9.081,57.841-9.413
			c46.655-0.848,229.003,37.22,293.616,25.451C1154.539,1766.478,1155.503,1780.066,1154.548,1791.691z"/>
		<g>
			<path style="fill:#F6884F;" d="M840.606,1921.4c-6.807,36.967-19.883,68.141-28.765,80.256
				c-7.507,10.25,26.382,11.824,24.059,41.944c-25.53,1.854-39.118,1.157-62.85,0c-25.286-12.092-140.828-174.808-15.123-278.204"/>
			<path style="fill:#FFDCA6;" d="M811.84,2001.656c7.265-9.898,15.932-27.544,21.301-49.289
				c-11.786-15.079-47.386-17.14-67.942-15.372c-22.441,1.907-40.648,2.899-50.577,18.784c17.393,51.824,48.609,83.128,58.426,87.82
				c23.732,1.157,37.32,1.854,62.85,0C838.223,2013.48,804.333,2011.906,811.84,2001.656z"/>
			
				<path style="fill:none;stroke:#DDB588;stroke-width:4.0606;stroke-linecap:round;stroke-linejoin:round;stroke-miterlimit:10;" d="
				M830.9,2041.232c1.008-4.745-3.815-11.479-7.791-14.086"/>
			
				<path style="fill:none;stroke:#DDB588;stroke-width:4.0606;stroke-linecap:round;stroke-linejoin:round;stroke-miterlimit:10;" d="
				M815.641,2042.082c1.033-4.758-2.777-10.241-6.748-12.855"/>
		</g>
		<g>
			
				<path style="fill:none;stroke:#4A403E;stroke-width:8.7378;stroke-linecap:round;stroke-linejoin:round;stroke-miterlimit:10;" d="
				M542.634,1632.062c-24.526,19.903-30.485,60.45-19.669,88.901"/>
			
				<path style="fill:none;stroke:#4A403E;stroke-width:8.7378;stroke-linecap:round;stroke-linejoin:round;stroke-miterlimit:10;" d="
				M489.011,1643.06c-10.918,14.075-12.896,31.176-8.472,48.36"/>
			
				<path style="fill:none;stroke:#4A403E;stroke-width:8.7378;stroke-linecap:round;stroke-linejoin:round;stroke-miterlimit:10;" d="
				M684.075,1654.907c15.805,27.33,6.86,67.327-13.404,90.036"/>
			
				<path style="fill:none;stroke:#4A403E;stroke-width:8.7378;stroke-linecap:round;stroke-linejoin:round;stroke-miterlimit:10;" d="
				M731.013,1681.582c5.812,16.823,2.222,33.666-7.484,48.511"/>
		</g>
	</g>
</g>
</svg>
